:SAMPLES-PER-SECOND 30
:FULLY-SPECIFIED
:DEGREES
1575
root  13.1315 38.7866 16.9678 62.9259 85.0373 71.4454
RightUpLeg  -13.1428 8.35809 -14.1254
RightLeg  31.5532 2.29813 1.29205
RightFoot  -2.56625 -0.676686 8.57193
RightToes  2.32829e-010 0 -3.6325e-017
Spine  6.72108 -0.222384 -2.35679
Spine1  9.09097 -0.143464 -3.32028
HEad  -13.2361 27.8468 -9.93978
LeftShoulder1  0.126075 3.14007 -28.5318
LeftArm  -1.14326 9.60612 -42.7599
LeftForeArm  23.7384 -41.1071 -8.21905
LeftHand  -0.126145 1.33325 3.48544
RightShoulder  -0.154639 -3.98439 24.1847
RightArm  14.9209 -12.0719 49.8793
RightForeArm  11.3985 12.9305 6.27473
RightHand  -0.26164 2.47282 -4.03676
LeftUpLeg  0.485789 2.82603 -10.4394
LeftLeg  17.7705 -4.87341 -1.41232
LeftFoot  -7.17945 -0.437461 13.1703
LeftToes  -3.54706e-010 1.16038e-010 5.28031e-012
1576
root  13.9113 38.8095 17.2874 97.4037 84.7631 105.473
RightUpLeg  -12.5796 11.7779 -16.299
RightLeg  21.5836 2.61026 1.1457
RightFoot  -2.13437 -0.728298 8.85041
RightToes  2.32829e-010 0 -3.6325e-017
Spine  6.62616 -0.134316 -1.44885
Spine1  8.94329 0.412109 -4.32877
HEad  -14.1995 28.434 -10.165
LeftShoulder1  0.124964 3.13859 -28.1326
LeftArm  -1.50365 9.50843 -42.9932
LeftForeArm  24.1666 -42.59 -8.67203
LeftHand  -0.117984 0.775337 2.90372
RightShoulder  -0.206376 -4.14899 24.4167
RightArm  13.8378 -11.0023 49.3841
RightForeArm  11.7005 10.8622 6.70593
RightHand  -0.367155 3.88344 -4.87108
LeftUpLeg  1.63187 2.46133 -10.4188
LeftLeg  17.4437 -7.47479 -2.02253
LeftFoot  -7.91225 -0.354046 13.374
LeftToes  -3.54706e-010 1.16038e-010 5.28031e-012
1577
root  14.7277 38.8207 17.5842 122.581 83.2664 130.513
RightUpLeg  -11.1177 11.2985 -17.0699
RightLeg  12.5091 6.88837 0.285379
RightFoot  -1.76807 -0.774686 9.08355
RightToes  2.32829e-010 0 -3.6325e-017
Spine  6.56507 -0.0735073 -0.432713
Spine1  9.17855 0.715698 -4.68924
HEad  -15.1526 28.843 -11.5254
LeftShoulder1  0.0643081 3.31856 -28.5894
LeftArm  -1.7625 9.5796 -42.7411
LeftForeArm  23.7703 -43.0045 -8.83996
LeftHand  -0.125918 1.36241 3.46454
RightShoulder  -0.185933 -4.09211 23.9245
RightArm  11.5558 -10.4202 49.1729
RightForeArm  12.9975 9.54958 6.31795
RightHand  -0.301821 2.56939 -4.6021
LeftUpLeg  3.13796 2.34155 -9.96675
LeftLeg  17.2436 -10.176 -2.6232
LeftFoot  -8.88959 -0.234249 13.341
LeftToes  -3.54706e-010 1.16038e-010 5.28031e-012
1578
root  15.5662 38.829 17.8903 136.631 81.2771 144.596
RightUpLeg  -8.88843 -3.02307 -14.3541
RightLeg  4.97857 22.9583 -2.57345
RightFoot  -1.87149 -0.986078 11.7641
RightToes  2.32829e-010 0 -3.6325e-017
Spine  6.10445 0.12958 0.98233
Spine1  10.0933 1.25207 -5.34699
HEad  -15.532 29.3865 -12.9492
LeftShoulder1  0.101775 3.20766 -28.2488
LeftArm  -2.47535 9.40182 -43.2533
LeftForeArm  23.0677 -41.1491 -8.27639
LeftHand  -0.127678 1.40311 3.54805
RightShoulder  -0.203295 -4.14396 24.1893
RightArm  9.67426 -9.38081 48.2358
RightForeArm  12.3532 8.03142 5.82814
RightHand  -0.243854 1.90006 -4.06017
LeftUpLeg  4.73741 1.98608 -9.2297
LeftLeg  17.1579 -12.7251 -3.10877
LeftFoot  -10.2615 -0.055147 12.4114
LeftToes  -3.54706e-010 1.16038e-010 5.28031e-012
1579
root  16.4294 38.8049 18.2459 146.414 79.187 153.913
RightUpLeg  -8.04668 -10.1717 -13.2379
RightLeg  1.65643 28.8607 -3.0126
RightFoot  -0.967124 -1.4307 15.6826
RightToes  2.32829e-010 0 -3.6325e-017
Spine  5.75653 0.346832 1.97217
Spine1  9.9149 1.47591 -5.06234
HEad  -15.0582 30.1798 -13.6323
LeftShoulder1  0.0472185 3.36811 -28.5994
LeftArm  -1.89876 9.86115 -42.7272
LeftForeArm  21.7957 -38.6644 -7.60403
LeftHand  -0.107799 1.94796 3.35673
RightShoulder  -0.217251 -4.19342 24.004
RightArm  8.41461 -8.5812 47.2321
RightForeArm  10.8914 6.95466 5.32176
RightHand  -0.234086 1.80848 -3.9469
LeftUpLeg  5.45777 0.0391593 -8.58911
LeftLeg  17.6026 -13.413 -3.04245
LeftFoot  -11.8022 0.116543 11.4988
LeftToes  -3.54706e-010 1.16038e-010 5.28031e-012
1580
root  17.3165 38.76 18.5868 152.942 77.5266 160.296
RightUpLeg  -7.72464 -8.82236 -12.576
RightLeg  4.00383 27.6296 -1.71678
RightFoot  3.0331 -1.76068 14.0053
RightToes  2.32829e-010 0 -3.6325e-017
Spine  5.37444 0.52029 3.71287
Spine1  10.1009 1.8392 -5.34178
HEad  -14.768 32.4264 -12.1889
LeftShoulder1  0.0459648 3.37066 -28.5338
LeftArm  -1.99158 10.5291 -42.4153
LeftForeArm  20.1378 -34.7097 -6.59516
LeftHand  -0.114531 2.06017 3.67791
RightShoulder  -0.25624 -4.31604 24.2381
RightArm  7.82149 -7.20607 46.0895
RightForeArm  9.57745 5.94761 5.05294
RightHand  -0.243887 1.6304 -4.18498
LeftUpLeg  6.34628 -4.9557 -8.52077
LeftLeg  18.2876 -10.7111 -2.34855
LeftFoot  -13.5284 0.277046 10.1951
LeftToes  -3.54706e-010 1.16038e-010 5.28031e-012
1581
root  18.1427 38.6614 18.8695 158.792 76.2244 166.525
RightUpLeg  -8.27487 -5.23747 -11.9814
RightLeg  9.76859 22.5725 1.00689
RightFoot  1.19301 -1.30255 11.8976
RightToes  2.32829e-010 0 -3.6325e-017
Spine  6.14978 0.434278 5.95921
Spine1  9.62869 1.89559 -5.21029
HEad  -15.2887 33.5127 -14.9379
LeftShoulder1  -0.0563485 3.66286 -29.3141
LeftArm  -1.25723 11.204 -41.235
LeftForeArm  16.9189 -29.9628 -5.55178
LeftHand  -0.124439 1.80771 3.77944
RightShoulder  -0.192898 -4.12872 23.2307
RightArm  6.99178 -6.23347 45.9735
RightForeArm  7.97415 5.74172 4.7905
RightHand  -0.290852 2.43003 -4.53067
LeftUpLeg  7.25417 -11.7128 -8.53304
LeftLeg  19.9864 -5.59902 -1.69112
LeftFoot  -15.2857 0.414384 9.31395
LeftToes  -3.54706e-010 1.16038e-010 5.28031e-012
1582
root  18.8717 38.52 19.1241 167.687 74.1651 175.428
RightUpLeg  -8.32868 -4.52843 -10.6949
RightLeg  13.2096 18.9498 3.05834
RightFoot  -0.985155 -1.05806 11.6157
RightToes  2.32829e-010 0 -3.6325e-017
Spine  6.56987 0.0146118 8.9021
Spine1  9.1778 1.52667 -4.54058
HEad  -15.5414 35.7098 -14.2164
LeftShoulder1  -0.0702171 3.6982 -29.9602
LeftArm  -0.859533 11.4582 -41.0285
LeftForeArm  13.7115 -23.8106 -4.64182
LeftHand  -0.0891868 2.99914 3.66978
RightShoulder  -0.164834 -4.04839 22.4168
RightArm  6.39053 -5.38505 45.1992
RightForeArm  6.88918 7.11668 4.56916
RightHand  -0.273142 1.54154 -4.72485
LeftUpLeg  6.22364 -14.8849 -6.60151
LeftLeg  24.0041 -4.44569 -1.87785
LeftFoot  -17.0751 0.518439 8.34086
LeftToes  -3.54706e-010 1.16038e-010 5.28031e-012
